<svg width="281" height="281" viewBox="0 0 281 281" fill="none" xmlns="http://www.w3.org/2000/svg">
<rect x="4.5" y="4.5" width="271.977" height="271.977" rx="30" stroke="black" stroke-width="9" stroke-linejoin="round"/>
<path d="M271.406 177.596C272.95 179.543 275.781 179.871 277.728 178.327C279.676 176.783 280.004 173.953 278.46 172.005L274.933 174.8L271.406 177.596ZM199.379 104.98L195.879 102.151L199.379 104.98ZM219.676 105.079L216.149 107.874L219.676 105.079ZM118.181 183.103L121.277 179.837L118.181 183.103ZM137.233 181.842L140.732 184.671L137.233 181.842ZM4.0918 216.941L7.27378 220.123L71.2122 156.184L68.0303 153.002L64.8483 149.82L0.909816 213.759L4.0918 216.941ZM86.1655 152.759L83.0699 156.025L115.085 186.37L118.181 183.103L121.277 179.837L89.2611 149.493L86.1655 152.759ZM137.233 181.842L140.732 184.671L202.878 107.809L199.379 104.98L195.879 102.151L133.734 179.012L137.233 181.842ZM219.676 105.079L216.149 107.874L271.406 177.596L274.933 174.8L278.46 172.005L223.203 102.284L219.676 105.079ZM199.379 104.98L202.878 107.809C206.301 103.575 212.767 103.607 216.149 107.874L219.676 105.079L223.203 102.284C216.24 93.4985 202.928 93.4336 195.879 102.151L199.379 104.98ZM118.181 183.103L115.085 186.37C122.494 193.391 134.315 192.608 140.732 184.671L137.233 181.842L133.734 179.012C130.616 182.868 124.875 183.248 121.277 179.837L118.181 183.103ZM68.0303 153.002L71.2122 156.184C74.469 152.927 79.7271 152.857 83.0699 156.025L86.1655 152.759L89.2611 149.493C82.3788 142.97 71.5533 143.115 64.8483 149.82L68.0303 153.002Z" fill="black"/>
<circle cx="76.4787" cy="72.603" r="21.6653" stroke="black" stroke-width="9"/>
</svg>
